<?xml version="1.0" encoding="UTF-8"?>
<svg id="Layer_1" xmlns="http://www.w3.org/2000/svg" version="1.1" viewBox="0 0 2000 2000">
  <!-- Generator: Adobe Illustrator 30.0.0, SVG Export Plug-In . SVG Version: 2.1.1 Build 123)  -->
  <defs>
    <style>
      .st0 {
        fill: #f6edde;
      }
    </style>
  </defs>
  <g>
    <path class="st0" d="M29.04,1319.47c0-45.66,32.74-80.2,76.6-80.2,25.53,0,46.56,12.01,59.47,31.24v-27.63h25.83v112.94c0,9.31,6.01,15.32,15.32,15.32h3v24.93h-8.11c-20.73,0-33.04-9.91-35.44-28.24-12.92,19.52-34.24,31.84-60.08,31.84-43.85,0-76.6-34.54-76.6-80.2ZM165.11,1319.47c0-31.54-23.43-55.27-54.67-55.27s-54.97,23.73-54.97,55.27,23.43,55.27,54.97,55.27,54.67-23.73,54.67-55.27Z"/>
    <path class="st0" d="M237.2,1179.79h25.83v90.71c12.92-19.22,33.94-31.24,59.47-31.24,43.85,0,76.9,34.54,76.9,80.2s-33.04,80.2-76.9,80.2c-25.53,0-46.56-12.02-59.47-31.24v27.64h-25.83v-216.27ZM372.67,1319.47c0-31.54-23.43-55.27-54.97-55.27s-54.67,23.73-54.67,55.27,23.43,55.27,54.67,55.27,54.97-23.73,54.97-55.27Z"/>
    <path class="st0" d="M440.57,1369.03l-12.62,27.03h-27.03l72.69-153.19h29.74c12.92,41.15,65.18,42.95,65.18,95.82,0,36.35-24.03,60.98-62.48,60.98-27.33,0-51.36-12.02-65.48-30.64ZM488.03,1268.4l-37.25,79.3c9.61,16.22,29.44,27.03,50.76,27.03,23.73,0,40.25-14.12,40.25-36.35,0-31.54-36.95-37.85-53.77-69.99Z"/>
    <path class="st0" d="M787.81,1242.87h25.83v23.13c12.02-17.12,31.24-26.73,55.27-26.73,37.25,0,62.18,24.63,62.18,62.18v54.37c0,9.31,6.01,15.32,15.32,15.32h2.7v24.93h-7.81c-23.13,0-36.05-12.32-36.05-34.84v-51.66c0-27.33-17.42-45.36-44.76-45.36s-46.86,18.32-46.86,45.96v85.91h-25.83v-153.19Z"/>
    <path class="st0" d="M1059.5,1359.02c-22.14-39.88-8.19-87.09,32.21-109.52,40.67-22.57,87.85-9.3,109.99,30.58,1.46,2.62,3.53,6.97,4.72,9.74l-117.54,65.25c17.04,21.43,44.96,27.21,70.15,13.23,18.63-10.34,29.94-28.29,30.12-45.9l25.19-13.98c3.78,31.54-12.58,63.27-44.07,80.75-41.19,22.87-88.64,9.73-110.77-30.14ZM1077.93,1334.72l93.66-51.99c-16.87-20.5-44.5-25.75-68.37-12.5-23.88,13.25-33.5,39.19-25.29,64.49Z"/>
    <path class="st0" d="M1815.58,1359.12c-22.14-39.88-8.19-87.09,32.21-109.52,40.67-22.57,87.85-9.3,109.99,30.58,1.46,2.62,3.53,6.97,4.72,9.74l-117.54,65.25c17.04,21.43,44.96,27.21,70.15,13.23,18.63-10.34,29.94-28.29,30.12-45.9l25.19-13.98c3.78,31.54-12.58,63.27-44.07,80.75-41.19,22.87-88.64,9.73-110.77-30.14ZM1834.01,1334.82l93.66-51.99c-16.87-20.5-44.5-25.75-68.37-12.5-23.88,13.25-33.5,39.19-25.29,64.49Z"/>
    <path class="st0" d="M1251.84,1369.06l-12.6,27.01h-27.01l72.62-153.04h29.71c12.9,41.11,65.12,42.91,65.12,95.72,0,36.31-24.01,60.92-62.42,60.92-27.31,0-51.31-12-65.42-30.61ZM1299.26,1268.54l-37.21,79.22c9.6,16.2,29.41,27.01,50.71,27.01,23.7,0,40.21-14.1,40.21-36.31,0-31.51-36.91-37.81-53.71-69.92Z"/>
    <path class="st0" d="M1412.4,1351.06v-84.62h-27.91v-23.41h18c7.2,0,11.1-3.9,11.1-11.4v-30.91h24.61v42.31h41.11v23.41h-41.11v80.42c0,15.61,9.9,25.51,26.11,25.51h15v23.71h-18.6c-30.91,0-48.31-16.51-48.31-45.01Z"/>
    <path class="st0" d="M1498.82,1319.55c0-45.61,32.71-80.12,76.52-80.12,25.51,0,46.51,12,59.42,31.21v-27.61h25.81v112.83c0,9.3,6,15.3,15.3,15.3h3v24.91h-8.1c-20.71,0-33.01-9.9-35.41-28.21-12.9,19.5-34.21,31.81-60.02,31.81-43.81,0-76.52-34.51-76.52-80.12ZM1634.75,1319.55c0-31.51-23.41-55.21-54.62-55.21s-54.91,23.71-54.91,55.21,23.41,55.21,54.91,55.21,54.62-23.7,54.62-55.21Z"/>
    <path class="st0" d="M1720.89,1351.06v-84.62h-27.91v-23.41h18c7.2,0,11.1-3.9,11.1-11.4v-30.91h24.61v42.31h41.11v23.41h-41.11v80.42c0,15.61,9.9,25.51,26.11,25.51h15v23.71h-18.6c-30.91,0-48.31-16.51-48.31-45.01Z"/>
    <path class="st0" d="M465.4,1478.02c0,1.27-.14,2.23-.41,2.89-.28.66-.63,1.11-1.08,1.36-.44.25-.95.39-1.52.41-.57.02-1.13.03-1.68.03-1.44,0-2.74-.01-3.9-.03-1.16-.02-2.33-.05-3.49-.1-1.16-.04-2.39-.07-3.68-.09-1.29-.02-2.78-.03-4.47-.03-1.78,0-3.89.16-6.35.48-2.45.32-4.88.71-7.27,1.17-2.39.47-4.56.96-6.51,1.49-1.95.53-3.28,1.01-4,1.43-.34.21-.66.52-.95.92-.3.4-.55.85-.76,1.33-.21.49-.39.98-.54,1.49-.15.51-.22.95-.22,1.33-.42,4.49-.9,8.93-1.43,13.33-.53,4.4-1.02,8.77-1.46,13.11-.44,4.34-.83,8.63-1.14,12.89-.32,4.25-.48,8.47-.48,12.66,0,.72.1,1.79.29,3.21.19,1.42.4,2.86.63,4.32.23,1.46.44,2.76.63,3.9.19,1.14.29,1.8.29,1.97,0,.85-.13,1.7-.38,2.57-.25.87-.6,1.65-1.05,2.35s-.99,1.27-1.65,1.71c-.66.44-1.36.67-2.13.67-.51,0-1.06-.15-1.65-.44-.59-.3-1.17-.7-1.75-1.21-.57-.51-1.09-1.11-1.56-1.81-.47-.7-.83-1.45-1.08-2.25-.34-1.06-.61-2.27-.83-3.65-.21-1.37-.38-2.8-.51-4.28-.13-1.48-.21-2.95-.25-4.41-.04-1.46-.06-2.79-.06-4s.01-2.23.03-3.08c.02-.85.03-1.4.03-1.65,0-1.27.13-3.28.38-6.03.25-2.75.57-5.83.95-9.24.38-3.41.79-6.92,1.24-10.54.44-3.62.86-6.93,1.24-9.93.38-3,.7-5.48.95-7.43.25-1.95.38-2.94.38-2.98,0-.68-.15-1.16-.44-1.46-.3-.3-.63-.49-1.02-.57-.38-.08-.73-.11-1.05-.06-.32.04-.5.06-.54.06-1.61,0-3.68.15-6.22.44-2.54.3-5.25.63-8.12.98-2.88.36-5.81.69-8.79.98-2.98.3-5.74.44-8.28.44h-1.78c-.59,0-1.2-.06-1.81-.19-.61-.13-1.23-.36-1.84-.7-.61-.34-1.24-.83-1.87-1.46-.04-.42-.07-.97-.09-1.65-.02-.68.04-1.36.19-2.06.15-.7.44-1.33.89-1.9.44-.57,1.11-.96,2-1.17,1.9-.42,4.07-.76,6.51-1.02,2.43-.25,4.91-.46,7.43-.63,2.52-.17,4.97-.34,7.36-.51,2.39-.17,4.52-.38,6.38-.63,1.31-.17,2.94-.38,4.89-.63,1.95-.25,3.95-.53,6-.83,2.05-.3,4.04-.59,5.97-.89,1.93-.3,3.5-.57,4.73-.83,2.54-.51,5.24-1.1,8.09-1.78,2.86-.68,5.74-1.32,8.66-1.94,2.92-.61,5.82-1.12,8.7-1.52,2.88-.4,5.63-.6,8.25-.6.3,0,.81.01,1.56.03.74.02,1.58.07,2.51.16.93.09,1.93.21,2.98.38,1.06.17,2.05.4,2.98.7.47.13.88.4,1.24.83.36.42.67.89.92,1.4.25.51.45,1.02.6,1.52.15.51.22.93.22,1.27Z"/>
    <path class="st0" d="M578.32,1513.7c0,.85-.63,2.24-1.9,4.19-.51.76-1.12,1.62-1.84,2.57-.72.95-1.46,1.89-2.22,2.82-.76.93-1.52,1.82-2.29,2.67-.76.85-1.44,1.57-2.03,2.16-2.5,2.5-5.1,5.05-7.81,7.65-2.71,2.6-5.52,4.98-8.44,7.14-2.92,2.16-5.93,3.94-9.05,5.33-3.11,1.4-6.32,2.14-9.62,2.22-4.95,0-8.53-2.05-10.73-6.16-1.06-2.03-1.98-4.45-2.76-7.27-.78-2.81-1.36-6.27-1.75-10.38-.17-1.86-.36-3.58-.57-5.14-.21-1.56-.49-2.91-.83-4.03-.34-1.12-.79-1.99-1.36-2.6-.57-.61-1.32-.92-2.25-.92-.76,0-1.74.36-2.92,1.08-1.19.72-2.5,1.71-3.94,2.98-1.44,1.27-2.94,2.78-4.51,4.54-1.57,1.76-3.11,3.67-4.63,5.74-.93,1.27-2.06,2.86-3.4,4.76-1.33,1.9-2.74,3.94-4.22,6.09-1.48,2.16-2.97,4.35-4.47,6.57-1.5,2.22-2.89,4.28-4.16,6.19-.25.38-.78,1-1.59,1.84-.8.85-1.68,1.7-2.63,2.57-.95.87-1.87,1.62-2.76,2.25-.89.63-1.59.95-2.09.95-.85,0-1.67-.07-2.48-.22-.8-.15-1.51-.39-2.13-.73-.61-.34-1.11-.77-1.49-1.3-.38-.53-.57-1.19-.57-2,0-.55.08-1.39.25-2.51.17-1.12.36-2.31.57-3.55.21-1.25.44-2.45.7-3.62.25-1.16.47-2.08.63-2.76.59-3.43,1.21-6.95,1.84-10.57.63-3.62,1.27-7.25,1.9-10.89.63-3.64,1.25-7.26,1.84-10.85.59-3.6,1.12-7.09,1.59-10.47.13-1.02.3-2.3.51-3.84.21-1.54.42-3.22.63-5.01.21-1.8.43-3.67.67-5.62.23-1.95.47-3.84.7-5.68.23-1.84.43-3.53.6-5.08.17-1.54.32-2.85.44-3.9.13-1.02.38-2.14.76-3.36.38-1.23.86-2.36,1.43-3.4.57-1.04,1.21-1.91,1.9-2.63.7-.72,1.41-1.08,2.13-1.08.68,0,1.41.15,2.19.44.78.3,1.5.76,2.16,1.4.66.63,1.21,1.45,1.65,2.44.44,1,.67,2.19.67,3.59,0,3.39-.28,6.8-.83,10.25-.55,3.45-1.22,6.85-2,10.19-.78,3.34-1.62,6.57-2.51,9.68-.89,3.11-1.65,6.04-2.28,8.79-.17.72-.43,1.84-.79,3.36-.36,1.52-.75,3.29-1.17,5.3-.42,2.01-.87,4.17-1.33,6.47-.47,2.31-.9,4.57-1.3,6.79-.4,2.22-.74,4.33-1.02,6.32-.28,1.99-.46,3.66-.54,5.01,0,.25.14.55.41.89.28.34.52.51.73.51h.25c1.82-3.05,3.71-6.05,5.68-9.01,1.97-2.96,3.92-5.79,5.87-8.47,1.95-2.69,3.86-5.19,5.74-7.52,1.88-2.33,3.67-4.36,5.36-6.09,2.83-2.92,5.79-5.23,8.85-6.92,3.07-1.69,5.85-2.54,8.35-2.54.34,0,.79.15,1.36.44.57.3,1.16.68,1.78,1.14.61.47,1.17.98,1.68,1.55.51.57.87,1.15,1.08,1.75.85,2.29,1.47,4.57,1.87,6.86.4,2.29.73,4.7.98,7.24.25,2.5.56,4.9.92,7.2.36,2.31.81,4.35,1.36,6.13.55,1.78,1.23,3.21,2.03,4.28.8,1.08,1.78,1.62,2.92,1.62,2.28,0,4.6-.44,6.95-1.33,2.35-.89,4.65-2.01,6.92-3.36,2.26-1.35,4.4-2.82,6.41-4.41,2.01-1.59,3.82-3.08,5.43-4.47,1.44-1.23,3.01-2.59,4.73-4.09,1.71-1.5,3.59-3.21,5.62-5.11,4.15-3.77,6.54-5.65,7.17-5.65s.95.87.95,2.6Z"/>
    <path class="st0" d="M627.36,1511.98c-.4.8-.9,1.46-1.49,1.97-.59.51-1.25.88-1.97,1.11-.72.23-1.42.35-2.09.35-.59,0-1.3-.11-2.13-.32-.83-.21-1.66-.34-2.51-.38-1.65,0-3.63.46-5.93,1.36-2.31.91-4.67,2.09-7.08,3.52-2.41,1.44-4.76,3.05-7.05,4.82-2.28,1.78-4.21,3.53-5.78,5.27-.85.97-1.75,2.05-2.7,3.24-.95,1.19-1.87,2.43-2.76,3.74-.89,1.31-1.68,2.65-2.38,4-.7,1.35-1.2,2.67-1.49,3.94-.17.68-.23,1.51-.19,2.51.04.99.13,2.07.25,3.24.13,1.16.26,2.37.41,3.62.15,1.25.22,2.44.22,3.59,0,.68-.01,1.32-.03,1.94-.02.61-.1,1.2-.22,1.75-.09.38-.32.79-.7,1.24-.38.44-.85.86-1.4,1.24-.55.38-1.15.71-1.81.98-.66.28-1.28.41-1.87.41-.97-.04-1.8-.55-2.48-1.52-.68-.97-1.23-2.31-1.65-4-.42-1.69-.72-3.69-.89-6-.17-2.31-.25-4.81-.25-7.52,0-.8.02-1.99.06-3.55.04-1.57.1-3.16.16-4.79.06-1.63.13-3.1.19-4.41.06-1.31.1-2.12.1-2.41.04-.72.09-1.69.16-2.92.06-1.23.15-2.57.25-4.03.11-1.46.23-2.95.38-4.47.15-1.52.31-2.92.48-4.19.08-.51.17-1.25.25-2.22.08-.97.18-1.98.29-3.02.11-1.04.22-2.03.35-2.98.13-.95.25-1.66.38-2.13.13-.51.41-1.1.86-1.78.44-.68.98-1.33,1.62-1.97s1.34-1.17,2.13-1.62c.78-.44,1.6-.67,2.44-.67.89.04,1.62.22,2.19.54.57.32,1.03.7,1.36,1.14.34.44.57.91.7,1.4.13.49.19.92.19,1.3,0,.21-.07.63-.22,1.24-.15.61-.35,1.33-.6,2.16-.25.83-.52,1.71-.79,2.67-.28.95-.53,1.85-.76,2.7-.23.85-.43,1.61-.6,2.28-.17.68-.25,1.14-.25,1.4,0,.34-.05.98-.16,1.94-.11.95-.21,2.04-.32,3.27-.11,1.23-.21,2.51-.32,3.84-.11,1.33-.16,2.51-.16,3.52v.95c0,.3.02.57.06.83,1.56-1.95,3.29-3.98,5.17-6.09,1.88-2.12,3.88-4.2,6-6.25,2.12-2.05,4.32-4.01,6.6-5.87,2.29-1.86,4.6-3.5,6.95-4.92,2.35-1.42,4.7-2.54,7.05-3.36,2.35-.83,4.64-1.24,6.89-1.24,1.27.04,2.38.32,3.33.83.95.51,1.75,1.11,2.38,1.81.63.7,1.1,1.41,1.4,2.13.3.72.44,1.33.44,1.84v.06c-.04,1.19-.26,2.18-.67,2.98Z"/>
    <path class="st0" d="M705.72,1521.57v.13c0,.93-.42,2.16-1.27,3.68-.85,1.52-1.98,3.24-3.4,5.14-1.42,1.9-3.06,3.94-4.92,6.09-1.86,2.16-3.81,4.34-5.84,6.54-2.41,2.54-4.92,4.98-7.52,7.33-2.6,2.35-5.43,4.62-8.47,6.82-5.92,4.4-11.21,6.6-15.87,6.6-5.12,0-9.1-1.71-11.93-5.14-2.84-3.47-4.76-7.66-5.78-12.57-1.02-4.87-1.52-9.88-1.52-15.04,0-2.16.25-5.52.76-10.09.25-2.28.51-4.25.76-5.9.25-1.65.53-2.98.83-4,.59-1.99,1.84-3.72,3.75-5.21,1.95-1.56,3.98-2.35,6.09-2.35,1.14,0,1.71,1.08,1.71,3.24,0,1.44-.14,3.07-.41,4.89-.28,1.82-.56,3.62-.86,5.4-.55,3.34-.95,6.34-1.21,8.98-.25,2.64-.38,4.94-.38,6.89,0,4.32.59,8.63,1.78,12.95,1.18,4.44,3.32,6.66,6.41,6.66s6.77-1.14,10.92-3.43c2.07-1.18,4.15-2.5,6.22-3.94,2.07-1.44,4.15-3.05,6.22-4.82,2.16-1.78,4.19-3.56,6.09-5.36,1.9-1.8,3.81-3.65,5.71-5.55s3.59-3.68,5.05-5.33c1.46-1.65,2.74-3.17,3.84-4.57.08-.17.25-.49.51-.95.25-.46.49-.7.7-.7l.13.06c.34,0,.59.12.76.35.17.23.36.58.57,1.05.42.93.61,1.65.57,2.16ZM664.14,1469.96c0,2.75-.72,5.1-2.16,7.05-1.4,1.95-3.45,2.92-6.16,2.92-1.69,0-3.58-.25-5.65-.76-2.03-.51-3.05-1.33-3.05-2.48,0-2.07.64-4.05,1.94-5.93,1.29-1.88,2.85-3.42,4.67-4.6,1.48-.85,2.43-1.27,2.86-1.27,2.41,0,4.27.33,5.59.98,1.31.66,1.97,2.02,1.97,4.09Z"/>
    <path class="st0" d="M791.03,1508.24c0,.3-.16.68-.48,1.14-.32.47-.69.93-1.11,1.4-.42.47-.84.88-1.24,1.24-.4.36-.67.58-.79.67-1.06.68-2.32,1.25-3.78,1.71-1.46.47-3,.85-4.63,1.14-1.63.3-3.28.54-4.95.73-1.67.19-3.21.33-4.6.41-1.4.09-2.6.14-3.62.16-1.02.02-1.69.03-2.03.03-.8,0-1.84.69-3.11,2.06-1.27,1.38-2.69,3.2-4.25,5.46-1.57,2.26-3.24,4.85-5.01,7.74-1.78,2.9-3.58,5.9-5.39,9.01-1.82,3.11-3.62,6.18-5.4,9.2-1.78,3.03-3.44,5.78-4.98,8.25-1.55,2.48-2.94,4.57-4.19,6.28-1.25,1.71-2.25,2.78-3.02,3.21-.72.42-1.53.71-2.44.86-.91.15-1.81.15-2.7,0-.89-.15-1.72-.49-2.51-1.02-.78-.53-1.41-1.26-1.87-2.19-1.14-2.2-2.21-4.77-3.21-7.71-.99-2.94-1.96-6.08-2.89-9.43-.93-3.34-1.84-6.77-2.73-10.28-.89-3.51-1.79-6.95-2.7-10.31-.91-3.36-1.82-6.55-2.73-9.55-.91-3-1.87-5.65-2.89-7.93v-.19c0-.55.24-1.12.73-1.71.49-.59,1.08-1.13,1.78-1.62.7-.49,1.46-.89,2.28-1.21.83-.32,1.6-.48,2.32-.48.21,0,.53.07.95.22.42.15.85.33,1.27.54.42.21.81.43,1.17.67.36.23.58.43.67.6,1.4,2.75,2.51,5.99,3.33,9.71.83,3.72,1.64,7.71,2.44,11.97.8,4.25,1.7,8.67,2.7,13.27.99,4.59,2.34,9.13,4.03,13.62h1.4c1.02-.93,2.14-2.36,3.36-4.28,1.23-1.93,2.5-4.11,3.81-6.57,1.31-2.45,2.67-5.08,4.06-7.87s2.79-5.53,4.19-8.22c1.4-2.69,2.77-5.23,4.13-7.62,1.35-2.39,2.64-4.41,3.87-6.06.46-.63,1.06-1.43,1.78-2.38.72-.95,1.56-1.89,2.51-2.82.95-.93,2-1.72,3.14-2.38,1.14-.66,2.35-.98,3.62-.98,1.14,0,2.25.07,3.33.22,1.08.15,2.23.3,3.46.44,1.23.15,2.59.3,4.09.44,1.5.15,3.27.22,5.3.22,1.35,0,2.68-.08,3.97-.25,1.29-.17,2.49-.36,3.59-.57,1.1-.21,2.08-.41,2.95-.6.87-.19,1.56-.29,2.06-.29.21,0,.38.07.51.22.13.15.22.33.29.54.06.21.11.42.13.63.02.21.03.38.03.51Z"/>
    <path class="st0" d="M848.47,1521.57v.13c0,.93-.42,2.16-1.27,3.68-.85,1.52-1.98,3.24-3.4,5.14-1.42,1.9-3.06,3.94-4.92,6.09-1.86,2.16-3.81,4.34-5.84,6.54-2.41,2.54-4.92,4.98-7.52,7.33-2.6,2.35-5.43,4.62-8.47,6.82-5.92,4.4-11.21,6.6-15.87,6.6-5.12,0-9.1-1.71-11.93-5.14-2.84-3.47-4.76-7.66-5.78-12.57-1.02-4.87-1.52-9.88-1.52-15.04,0-2.16.25-5.52.76-10.09.25-2.28.51-4.25.76-5.9.25-1.65.53-2.98.83-4,.59-1.99,1.84-3.72,3.75-5.21,1.95-1.56,3.98-2.35,6.09-2.35,1.14,0,1.71,1.08,1.71,3.24,0,1.44-.14,3.07-.41,4.89-.28,1.82-.56,3.62-.86,5.4-.55,3.34-.95,6.34-1.21,8.98-.25,2.64-.38,4.94-.38,6.89,0,4.32.59,8.63,1.78,12.95,1.18,4.44,3.32,6.66,6.41,6.66s6.77-1.14,10.92-3.43c2.07-1.18,4.15-2.5,6.22-3.94,2.07-1.44,4.15-3.05,6.22-4.82,2.16-1.78,4.19-3.56,6.09-5.36,1.9-1.8,3.81-3.65,5.71-5.55s3.59-3.68,5.05-5.33c1.46-1.65,2.74-3.17,3.84-4.57.08-.17.25-.49.51-.95.25-.46.49-.7.7-.7l.13.06c.34,0,.59.12.76.35.17.23.36.58.57,1.05.42.93.61,1.65.57,2.16ZM806.9,1469.96c0,2.75-.72,5.1-2.16,7.05-1.4,1.95-3.45,2.92-6.16,2.92-1.69,0-3.58-.25-5.65-.76-2.03-.51-3.05-1.33-3.05-2.48,0-2.07.64-4.05,1.94-5.93,1.29-1.88,2.85-3.42,4.67-4.6,1.48-.85,2.43-1.27,2.86-1.27,2.41,0,4.27.33,5.59.98,1.31.66,1.97,2.02,1.97,4.09Z"/>
    <path class="st0" d="M949.21,1517.51c0,.8-.14,1.62-.41,2.44-.28.83-.61,1.65-1.02,2.48-.4.83-.86,1.63-1.36,2.41-.51.78-.99,1.53-1.46,2.25-1.23,1.9-2.67,3.84-4.32,5.81-1.65,1.97-3.42,3.88-5.3,5.74-1.88,1.86-3.82,3.62-5.81,5.27-1.99,1.65-3.94,3.11-5.84,4.38-1.52,1.02-2.97,1.97-4.35,2.86-1.38.89-2.76,1.65-4.16,2.28-1.4.63-2.86,1.14-4.38,1.52-1.52.38-3.2.57-5.01.57-3.51,0-6.37-.89-8.57-2.67-1.1-.89-2.06-2.04-2.89-3.46-.83-1.42-1.55-2.99-2.16-4.73-.61-1.73-1.14-3.58-1.59-5.52-.44-1.95-.82-3.87-1.11-5.78-.38-2.37-.74-4.5-1.08-6.38-.34-1.88-.73-3.47-1.17-4.76-.44-1.29-.98-2.28-1.62-2.98s-1.46-1.05-2.48-1.05c-.8,0-1.57.09-2.28.25-.72.17-1.47.51-2.25,1.02-.78.51-1.64,1.23-2.57,2.16-.93.93-2.02,2.16-3.27,3.68-1.25,1.52-2.68,3.39-4.28,5.59-1.61,2.2-3.49,4.82-5.65,7.87-1.06,1.48-2.31,3.11-3.74,4.89-1.44,1.78-2.91,3.47-4.41,5.08-1.5,1.61-2.97,3.03-4.41,4.25-1.44,1.23-2.71,2.01-3.81,2.35-3.72-.8-5.59-5.44-5.59-13.9,0-2.24.25-5.65.76-10.22.25-2.07.55-4.24.89-6.51.34-2.26.76-4.53,1.27-6.79.51-2.26,1.09-4.46,1.75-6.6.66-2.14,1.43-4.11,2.32-5.93.42-.85.87-1.51,1.33-2,.46-.49.94-.85,1.43-1.08.49-.23.99-.38,1.52-.44.53-.06,1.07-.1,1.62-.1.68,0,1.28.47,1.81,1.4.53.93.79,2.22.79,3.87,0,1.02-.09,1.97-.25,2.86-.17.89-.4,1.8-.7,2.73-.3.93-.61,1.94-.95,3.01-.34,1.08-.68,2.32-1.02,3.71-.25,1.14-.54,2.41-.86,3.81-.32,1.4-.61,2.81-.89,4.25-.28,1.44-.51,2.85-.7,4.22-.19,1.38-.29,2.61-.29,3.71,0,.76.13,1.55.38,2.35,1.18-.13,3.13-1.9,5.84-5.33,1.4-1.73,2.93-3.64,4.6-5.71,1.67-2.07,3.48-4.36,5.43-6.86,1.44-1.86,2.87-3.6,4.28-5.21,1.42-1.61,2.89-3.01,4.41-4.22,1.52-1.21,3.14-2.16,4.86-2.86,1.71-.7,3.61-1.05,5.68-1.05,2.2,0,4.03.48,5.49,1.43,1.46.95,2.63,2.26,3.52,3.94.89,1.67,1.58,3.67,2.06,6,.49,2.33.88,4.89,1.17,7.68.25,2.37.5,4.72.73,7.05.23,2.33.69,4.41,1.36,6.25.68,1.84,1.65,3.33,2.92,4.47,1.27,1.14,3.09,1.71,5.46,1.71,1.82,0,3.72-.42,5.71-1.27,1.99-.85,4.08-2.02,6.28-3.52,2.2-1.5,4.47-3.27,6.82-5.3,2.35-2.03,4.77-4.25,7.27-6.67.97-.93,2.04-2.1,3.21-3.52,1.16-1.42,2.31-2.78,3.43-4.09,1.12-1.31,2.17-2.43,3.14-3.36.97-.93,1.76-1.4,2.35-1.4.25,0,.67.13,1.24.38.57.25.86.68.86,1.27Z"/>
    <path class="st0" d="M990.72,1502.84c0,.59-.17,1.36-.51,2.32-.34.95-.71,2.26-1.11,3.94-.4,1.67-.77,3.81-1.11,6.41-.34,2.6-.51,5.83-.51,9.68,0,.72-.02,2.6-.06,5.65-.04,3.05-.06,6.83-.06,11.36,0,9.99-1.24,18.38-3.71,25.17-2.48,6.79-5.91,12.22-10.31,16.28-1.31,1.23-2.68,2.32-4.09,3.27-1.42.95-2.95,1.78-4.6,2.48-1.65.7-3.45,1.23-5.4,1.59-1.95.36-4.11.54-6.47.54-1.9,0-3.97-.38-6.19-1.14-2.22-.76-4.45-1.72-6.7-2.89-2.24-1.16-4.39-2.44-6.44-3.84-2.05-1.4-3.88-2.75-5.49-4.06-1.61-1.31-2.89-2.49-3.84-3.52-.95-1.04-1.43-1.77-1.43-2.19,0-.93.2-1.72.6-2.38.4-.66,1.15-.98,2.25-.98s2.5.4,4.06,1.21c1.57.8,3.09,1.69,4.57,2.67,1.48.97,3.18,1.96,5.11,2.95,1.93.99,3.84,1.91,5.74,2.76,1.9.85,3.7,1.53,5.39,2.06,1.69.53,3.05.79,4.06.79,2.54,0,4.7-.29,6.47-.86,1.78-.57,3.32-1.36,4.63-2.38,1.31-1.02,2.43-2.2,3.36-3.55.93-1.35,1.84-2.84,2.73-4.44,1.06-1.82,1.96-4.03,2.7-6.63.74-2.6,1.35-5.47,1.84-8.6.49-3.13.86-6.47,1.11-10.03.25-3.55.42-7.17.51-10.85-2.03,2.16-4.44,4.34-7.24,6.54-2.79,2.2-5.77,4.17-8.92,5.9-3.15,1.74-6.38,3.15-9.68,4.25-3.3,1.1-6.47,1.65-9.52,1.65-1.82,0-3.3-.5-4.44-1.49-1.14-.99-2.04-2.17-2.7-3.52-.66-1.35-1.11-2.73-1.36-4.13-.25-1.4-.4-2.48-.44-3.24v-.38c0-1.35.29-2.94.86-4.76.57-1.82,1.32-3.71,2.25-5.68.93-1.97,1.98-3.91,3.14-5.84,1.16-1.93,2.29-3.69,3.4-5.3,1.82-2.67,4.06-5.44,6.73-8.32,2.67-2.88,5.57-5.51,8.73-7.9,3.15-2.39,6.5-4.36,10.03-5.9,3.53-1.54,7.08-2.32,10.63-2.32,1.73,0,3.3.2,4.7.6,1.4.4,2.59.95,3.59,1.65.99.7,1.77,1.51,2.32,2.44.55.93.83,1.93.83,2.98ZM979.67,1504.62c-.34-.3-.77-.51-1.3-.63-.53-.13-1.13-.19-1.81-.19-1.48,0-3.11.29-4.89.86-1.78.57-3.32,1.34-4.63,2.32-2.79,2.16-5.27,4.35-7.43,6.57-2.16,2.22-4.19,4.54-6.09,6.95-.59.76-1.28,1.72-2.06,2.89-.78,1.16-1.57,2.45-2.35,3.87-.78,1.42-1.56,2.89-2.32,4.41s-1.45,3.04-2.06,4.54c-.61,1.5-1.1,2.94-1.46,4.32-.36,1.38-.54,2.59-.54,3.65.93.34,1.97.51,3.11.51,1.23,0,2.45-.15,3.68-.44,1.23-.3,2.45-.68,3.68-1.14,1.23-.46,2.48-.99,3.75-1.59,1.27-.59,2.58-1.18,3.94-1.78,1.18-.51,2.45-1.16,3.81-1.97,1.35-.8,2.73-1.68,4.13-2.63,1.4-.95,2.79-1.95,4.19-2.98,1.4-1.04,2.71-2.04,3.94-3.02.3-.34.57-1.05.83-2.13.25-1.08.48-2.36.67-3.84.19-1.48.35-3.09.48-4.82.13-1.73.24-3.45.35-5.14.11-1.69.19-3.29.25-4.79.06-1.5.12-2.76.16-3.78Z"/>
    <path class="st0" d="M1149.53,1478.02c0,1.27-.14,2.23-.41,2.89-.28.66-.63,1.11-1.08,1.36-.44.25-.95.39-1.52.41-.57.02-1.13.03-1.68.03-1.44,0-2.74-.01-3.9-.03-1.16-.02-2.33-.05-3.49-.1-1.16-.04-2.39-.07-3.68-.09-1.29-.02-2.78-.03-4.47-.03-1.78,0-3.89.16-6.35.48-2.45.32-4.88.71-7.27,1.17-2.39.47-4.56.96-6.51,1.49-1.95.53-3.28,1.01-4,1.43-.34.21-.66.52-.95.92-.3.4-.55.85-.76,1.33-.21.49-.39.98-.54,1.49-.15.51-.22.95-.22,1.33-.42,4.49-.9,8.93-1.43,13.33-.53,4.4-1.02,8.77-1.46,13.11-.44,4.34-.83,8.63-1.14,12.89-.32,4.25-.48,8.47-.48,12.66,0,.72.1,1.79.29,3.21.19,1.42.4,2.86.63,4.32.23,1.46.44,2.76.63,3.9.19,1.14.29,1.8.29,1.97,0,.85-.13,1.7-.38,2.57-.25.87-.6,1.65-1.05,2.35s-.99,1.27-1.65,1.71c-.66.44-1.36.67-2.13.67-.51,0-1.06-.15-1.65-.44-.59-.3-1.17-.7-1.75-1.21-.57-.51-1.09-1.11-1.56-1.81-.47-.7-.83-1.45-1.08-2.25-.34-1.06-.61-2.27-.83-3.65-.21-1.37-.38-2.8-.51-4.28-.13-1.48-.21-2.95-.25-4.41-.04-1.46-.06-2.79-.06-4s.01-2.23.03-3.08c.02-.85.03-1.4.03-1.65,0-1.27.13-3.28.38-6.03.25-2.75.57-5.83.95-9.24.38-3.41.79-6.92,1.24-10.54.44-3.62.86-6.93,1.24-9.93.38-3,.7-5.48.95-7.43.25-1.95.38-2.94.38-2.98,0-.68-.15-1.16-.44-1.46-.3-.3-.63-.49-1.02-.57-.38-.08-.73-.11-1.05-.06-.32.04-.5.06-.54.06-1.61,0-3.68.15-6.22.44-2.54.3-5.25.63-8.12.98-2.88.36-5.81.69-8.79.98-2.98.3-5.74.44-8.28.44h-1.78c-.59,0-1.2-.06-1.81-.19-.61-.13-1.23-.36-1.84-.7-.61-.34-1.24-.83-1.87-1.46-.04-.42-.07-.97-.09-1.65-.02-.68.04-1.36.19-2.06.15-.7.44-1.33.89-1.9.44-.57,1.11-.96,2-1.17,1.9-.42,4.07-.76,6.51-1.02,2.43-.25,4.91-.46,7.43-.63,2.52-.17,4.97-.34,7.36-.51,2.39-.17,4.52-.38,6.38-.63,1.31-.17,2.94-.38,4.89-.63,1.95-.25,3.95-.53,6-.83,2.05-.3,4.04-.59,5.97-.89,1.93-.3,3.5-.57,4.73-.83,2.54-.51,5.24-1.1,8.09-1.78,2.86-.68,5.74-1.32,8.66-1.94,2.92-.61,5.82-1.12,8.7-1.52,2.88-.4,5.63-.6,8.25-.6.3,0,.81.01,1.56.03.74.02,1.58.07,2.51.16.93.09,1.93.21,2.98.38,1.06.17,2.05.4,2.98.7.47.13.88.4,1.24.83.36.42.67.89.92,1.4.25.51.45,1.02.6,1.52.15.51.22.93.22,1.27Z"/>
    <path class="st0" d="M1239.41,1509.7c0,.72-.16,1.45-.48,2.19-.32.74-.73,1.46-1.24,2.16-.51.7-1.07,1.35-1.68,1.97s-1.24,1.11-1.87,1.49c-1.48.97-3.59,1.83-6.32,2.57-2.73.74-6.1,1.11-10.12,1.11-3.22,0-6.45-.41-9.71-1.24-3.26-.83-6.39-2.19-9.39-4.09.97,1.48,1.6,2.9,1.87,4.25.28,1.35.41,2.96.41,4.82,0,3.34-.85,6.9-2.54,10.66-1.65,3.81-3.79,7.34-6.41,10.6-2.62,3.26-5.4,5.97-8.32,8.12-1.65,1.23-3.46,2.3-5.43,3.21-1.97.91-4.03,1.65-6.19,2.22s-4.4.99-6.73,1.27c-2.33.28-4.68.41-7.05.41-1.65,0-3.26-.53-4.82-1.59-1.57-1.06-2.96-2.35-4.19-3.87-1.23-1.52-2.21-3.15-2.95-4.89-.74-1.73-1.11-3.3-1.11-4.7,0-3.43.45-6.72,1.36-9.87.91-3.15,2.14-6.2,3.68-9.14,1.54-2.94,3.33-5.82,5.36-8.63,2.03-2.81,4.19-5.62,6.47-8.41,1.27-1.56,2.72-3.1,4.35-4.6,1.63-1.5,3.33-2.85,5.11-4.03,1.78-1.18,3.58-2.15,5.4-2.89,1.82-.74,3.55-1.11,5.2-1.11,1.35,0,2.52.19,3.49.57.97.38,1.89.92,2.76,1.62.87.7,1.76,1.58,2.67,2.63.91,1.06,1.96,2.24,3.14,3.55.38.38,1.43.94,3.14,1.68,1.71.74,3.74,1.46,6.09,2.16,2.35.7,4.81,1.31,7.39,1.84,2.58.53,4.93.79,7.05.79s4.06-.07,5.84-.22c1.78-.15,3.5-.39,5.17-.73,1.67-.34,3.33-.8,4.98-1.4,1.65-.59,3.43-1.31,5.33-2.16.17.63.25,1.19.25,1.65ZM1192,1524.93c.04-1.18-.04-2.53-.25-4.03-.21-1.5-.58-2.92-1.11-4.25-.53-1.33-1.23-2.42-2.09-3.27-.87-.85-1.94-1.18-3.21-1.02-1.95-.76-3.55-1.56-4.82-2.41-1.27-.85-2.24-1.27-2.92-1.27-.51,0-1.06.16-1.65.48-.59.32-1.21.75-1.84,1.3-.63.55-1.28,1.2-1.94,1.94-.66.74-1.3,1.51-1.94,2.32-1.27,1.65-2.44,3.15-3.52,4.51-1.08,1.35-2.09,2.7-3.05,4.03-.95,1.33-1.87,2.73-2.76,4.19-.89,1.46-1.78,3.1-2.67,4.92-.38.76-.72,1.67-1.02,2.73-.3,1.06-.55,2.15-.76,3.27-.21,1.12-.37,2.24-.48,3.36-.11,1.12-.16,2.13-.16,3.02,0,.55.19,1.22.57,2,.38.78.88,1.55,1.49,2.29.61.74,1.31,1.36,2.09,1.87.78.51,1.56.76,2.32.76,2.16,0,4-.1,5.52-.29,1.52-.19,2.93-.53,4.22-1.02,1.29-.49,2.59-1.15,3.9-2,1.31-.85,2.83-1.95,4.57-3.3.85-.63,1.68-1.37,2.51-2.22.83-.85,1.64-1.75,2.44-2.7.8-.95,1.57-1.93,2.29-2.92.72-.99,1.4-1.98,2.03-2.95.42-.63.78-1.42,1.08-2.35.3-.93.53-1.86.7-2.79.17-.93.29-1.78.35-2.54s.1-1.31.1-1.65Z"/>
    <path class="st0" d="M1278.77,1503.6c0,.25-.12.6-.35,1.05-.23.44-.49.9-.76,1.36-.28.47-.55.91-.83,1.33-.28.42-.43.74-.48.95-.68,2.92-1.21,5.73-1.59,8.44-.38,2.71-.68,5.52-.89,8.44-.17,2.75-.31,5.59-.41,8.51-.11,2.92-.2,5.83-.29,8.73-.09,2.9-.19,5.69-.32,8.38-.13,2.69-.28,5.15-.44,7.39-.42,5.29-1.33,10-2.73,14.12-1.4,4.13-3.26,7.62-5.59,10.47-2.33,2.86-5.07,5.02-8.22,6.51-3.15,1.48-6.68,2.22-10.57,2.22-2.37,0-4.79-.29-7.27-.86-2.48-.57-4.97-1.38-7.49-2.41-2.52-1.04-5.05-2.25-7.59-3.65-2.54-1.4-5.04-2.92-7.49-4.57-.13-.04-.52-.32-1.17-.83-.66-.51-1.35-1.12-2.09-1.84-.74-.72-1.4-1.5-1.97-2.35-.57-.85-.81-1.63-.73-2.35.04-.38.19-.71.44-.98.25-.28.56-.5.92-.67.36-.17.7-.3,1.02-.38.32-.09.56-.13.73-.13.38,0,1.01.25,1.87.76.87.51,1.87,1.12,3.02,1.84,1.14.72,2.38,1.48,3.71,2.28,1.33.8,2.68,1.5,4.03,2.09.93.47,2.17,1,3.71,1.62,1.54.61,3.22,1.21,5.01,1.78,1.8.57,3.66,1.06,5.59,1.46,1.92.4,3.75.6,5.49.6,5.33,0,9.43-1.82,12.28-5.46,2.86-3.64,4.58-8.89,5.17-15.74.17-1.73.36-3.61.57-5.62.21-2.01.41-4.22.6-6.63.19-2.41.38-5.07.57-7.97.19-2.9.35-6.08.48-9.55-.8.76-1.78,1.71-2.92,2.86-1.14,1.14-2.38,2.34-3.71,3.59-1.33,1.25-2.72,2.45-4.16,3.62-1.44,1.16-2.86,2.17-4.25,3.02-.51.34-1.32.83-2.44,1.46-1.12.63-2.4,1.27-3.84,1.9-1.44.63-2.96,1.2-4.57,1.68-1.61.49-3.15.73-4.63.73-1.86,0-3.58-.29-5.14-.86-1.57-.57-2.91-1.31-4.03-2.22-1.12-.91-2-1.94-2.63-3.08-.63-1.14-.95-2.31-.95-3.49,0-1.9.38-4.16,1.14-6.76.76-2.6,1.97-5.46,3.62-8.57,1.65-3.11,3.77-6.43,6.35-9.97,2.58-3.53,5.69-7.18,9.33-10.95.8-.85,1.78-1.73,2.92-2.67,1.14-.93,2.38-1.85,3.71-2.76,1.33-.91,2.74-1.79,4.22-2.63,1.48-.85,2.97-1.59,4.47-2.22,1.5-.63,2.97-1.14,4.41-1.52,1.44-.38,2.79-.57,4.06-.57s2.59.25,4.09.76c1.5.51,2.92,1.24,4.25,2.19,1.33.95,2.45,2.12,3.36,3.49.91,1.38,1.36,2.91,1.36,4.6ZM1268.23,1504.11c.08-.42.01-.8-.22-1.14-.23-.34-.55-.63-.95-.89-.4-.25-.83-.45-1.27-.6-.44-.15-.84-.22-1.17-.22-5.29,0-11.13,3.3-17.52,9.9-2.37,2.41-4.52,5.03-6.44,7.84-1.93,2.81-3.58,5.48-4.95,8-1.38,2.52-2.44,4.73-3.21,6.63s-1.14,3.17-1.14,3.81c0,1.82.45,3.11,1.36,3.87.91.76,1.98,1.14,3.21,1.14,1.56,0,3.32-.43,5.27-1.3,1.95-.87,3.88-1.91,5.81-3.14,1.93-1.23,3.71-2.52,5.36-3.87,1.65-1.35,2.96-2.52,3.94-3.49,1.52-1.44,2.76-2.66,3.71-3.65.95-.99,1.75-1.98,2.38-2.95.63-.97,1.19-2.05,1.68-3.24.49-1.18,1.03-2.71,1.62-4.57.25-.76.49-1.68.7-2.76.21-1.08.43-2.19.67-3.33.23-1.14.44-2.24.63-3.3.19-1.06.37-1.97.54-2.73Z"/>
    <path class="st0" d="M1371.63,1519.09c0,.63-.47,1.76-1.4,3.36-2.2,3.17-4.67,6.35-7.39,9.52-2.73,3.17-5.63,6.19-8.7,9.04-3.07,2.86-6.26,5.52-9.58,8-3.32,2.48-6.68,4.61-10.06,6.41-3.39,1.8-6.76,3.18-10.12,4.16-3.36.97-6.61,1.44-9.74,1.4-6.77,0-12.03-1.97-15.77-5.9-3.74-3.94-5.62-9.88-5.62-17.84,0-6.64,1.03-13.1,3.08-19.36,2.05-6.26,5.55-12.29,10.5-18.09.93-1.02,1.98-1.99,3.14-2.92,1.16-.93,2.39-1.76,3.68-2.48,1.29-.72,2.62-1.29,4-1.71,1.37-.42,2.76-.68,4.16-.76.34,0,.8.04,1.4.13.59.09,1.23.23,1.9.44.68.21,1.33.48,1.97.79.63.32,1.14.71,1.52,1.17,1.18,1.35,2.13,2.75,2.82,4.19.7,1.44,1.09,3.03,1.17,4.76.08,1.95-.14,3.86-.67,5.74-.53,1.88-1.42,3.81-2.67,5.78-1.25,1.97-2.89,4-4.92,6.09-2.03,2.09-4.49,4.35-7.36,6.76-1.82,1.52-3.84,3.21-6.06,5.05-2.22,1.84-4.9,3.78-8.03,5.81,0,4.11,1.24,7.23,3.71,9.36,2.48,2.14,5.87,3.21,10.19,3.21,2.41,0,4.84-.32,7.3-.95,2.45-.63,4.87-1.47,7.24-2.51,2.37-1.04,4.67-2.22,6.89-3.55,2.22-1.33,4.31-2.7,6.25-4.09,3.6-2.62,6.86-5.24,9.78-7.84,2.92-2.6,5.82-5.34,8.7-8.22l3.43-3.43c2.07-1.82,3.58-2.73,4.51-2.73.51,0,.76.4.76,1.21ZM1323.13,1506.46c-.04-.63-.14-1.26-.29-1.87-.15-.61-.37-1.15-.67-1.62-.3-.47-.63-.84-1.02-1.11-.38-.28-.83-.41-1.33-.41-2.24.13-4.49,1.49-6.73,4.09-2.24,2.6-4.36,6.04-6.35,10.31-.47.93-.88,1.98-1.24,3.14-.36,1.16-.7,2.35-1.02,3.55-.32,1.21-.59,2.4-.83,3.59-.23,1.19-.43,2.24-.6,3.17,2.2-1.65,4.23-3.17,6.09-4.57,1.86-1.4,3.6-2.83,5.2-4.32,1.02-.93,2.05-1.94,3.11-3.02,1.06-1.08,2.02-2.21,2.89-3.4.87-1.18,1.56-2.41,2.06-3.68.51-1.27.74-2.56.7-3.87Z"/>
    <path class="st0" d="M1427.42,1489.83c.47,0,.87.28,1.21.83.34.55.51,1.06.51,1.52,0,.8-.31,1.75-.92,2.82-.61,1.08-1.45,2.17-2.51,3.27-1.06,1.1-2.31,2.17-3.75,3.21-1.44,1.04-2.96,1.92-4.57,2.63-2.33,1.02-4.91,1.99-7.74,2.92-2.84.93-5.83,1.76-8.98,2.48-3.15.72-6.43,1.34-9.84,1.87-3.41.53-6.82.92-10.25,1.17-.21,0-.43.4-.67,1.21-.23.8-.48,1.82-.73,3.05-.25,1.23-.5,2.59-.73,4.09-.23,1.5-.46,2.96-.67,4.38-.21,1.42-.4,2.7-.57,3.84-.17,1.14-.3,1.97-.38,2.48-.38,2.28-.71,4.31-.98,6.06-.28,1.76-.51,3.41-.7,4.95-.19,1.55-.35,3.04-.48,4.47-.13,1.44-.21,2.96-.25,4.57-.04.89-.05,1.68-.03,2.38.02.7.03,1.39.03,2.06s-.01,1.36-.03,2.06c-.02.7-.07,1.49-.16,2.38-.04.25-.31.61-.79,1.08-.49.47-1.05.92-1.68,1.36-.63.44-1.26.83-1.87,1.17-.61.34-1.05.51-1.3.51-1.06,0-1.93-.35-2.6-1.05-.68-.7-1.21-1.49-1.59-2.38-.38-.89-.63-1.76-.76-2.6-.13-.85-.19-1.42-.19-1.71,0-3.43.23-6.73.7-9.9.47-3.17,1.03-6.4,1.68-9.68.66-3.28,1.33-6.69,2.03-10.22.7-3.53,1.3-7.39,1.81-11.58-.34-.76-.86-1.25-1.56-1.46-.7-.21-1.41-.32-2.13-.32-.25,0-.5.01-.73.03-.23.02-.46.03-.67.03s-.76.03-1.65.1c-.89.06-1.95.13-3.17.19-1.23.06-2.53.15-3.9.25-1.38.11-2.67.19-3.87.25-1.21.06-2.25.13-3.14.19s-1.44.1-1.65.1c-.68,0-1.34-.21-2-.63-.66-.42-1.24-.92-1.75-1.49-.51-.57-.92-1.16-1.24-1.78-.32-.61-.48-1.13-.48-1.56,0-.85.16-1.58.48-2.19.32-.61.72-1.11,1.21-1.49.49-.38,1.04-.67,1.65-.86.61-.19,1.22-.29,1.81-.29.63,0,1.57-.02,2.79-.06,1.23-.04,2.58-.1,4.06-.16,1.48-.06,3.03-.14,4.63-.22,1.61-.08,3.11-.19,4.51-.32,1.4-.13,2.62-.25,3.68-.38,1.06-.13,1.8-.25,2.22-.38.89-.3,1.82-1.23,2.79-2.79.97-1.56,1.84-3.96,2.6-7.17.17-.72.38-1.73.63-3.05.25-1.31.53-2.77.83-4.38.3-1.61.59-3.27.89-4.98.3-1.71.57-3.34.83-4.89.25-1.54.45-2.92.6-4.13.15-1.21.24-2.1.29-2.7,0-.55.22-1.16.67-1.84.44-.68.96-1.3,1.56-1.87.59-.57,1.18-1.05,1.78-1.43.59-.38,1.04-.57,1.33-.57.63,0,1.25.21,1.84.63.59.42,1.11.92,1.56,1.49.44.57.79,1.15,1.05,1.75.25.59.38,1.04.38,1.33,0,.21-.05.69-.16,1.43-.11.74-.24,1.64-.41,2.7-.17,1.06-.37,2.2-.6,3.43-.23,1.23-.44,2.39-.63,3.49-.19,1.1-.37,2.09-.54,2.95-.17.87-.3,1.47-.38,1.81-.59,2.58-1.09,4.72-1.49,6.41-.4,1.69-.72,3.11-.95,4.25-.23,1.14-.4,2.06-.51,2.76-.11.7-.16,1.32-.16,1.87,0,.97.13,1.63.38,1.97.25.34.68.53,1.27.57.17,0,.85-.06,2.03-.19,1.18-.13,2.7-.32,4.54-.57,1.84-.25,3.88-.57,6.13-.95,2.24-.38,4.51-.81,6.79-1.3,2.28-.49,4.49-1.03,6.6-1.62,2.12-.59,3.96-1.25,5.52-1.97,1.52-.72,2.93-1.42,4.22-2.09,1.29-.68,2.43-1.29,3.43-1.84.99-.55,1.82-.98,2.48-1.3.66-.32,1.15-.48,1.49-.48Z"/>
    <path class="st0" d="M1511.84,1531.09c0,.47-.03,1.02-.1,1.65s-.19,1.29-.38,1.97c-.19.68-.46,1.34-.79,2-.34.66-.76,1.24-1.27,1.75-2.54,2.41-5.17,4.6-7.9,6.57-2.73,1.97-5.45,3.64-8.16,5.01-2.71,1.38-5.35,2.44-7.93,3.21-2.58.76-4.99,1.14-7.24,1.14-3.09,0-5.66-.58-7.71-1.75-2.05-1.16-3.69-2.69-4.92-4.57-1.23-1.88-2.09-4.04-2.6-6.47-.51-2.43-.76-4.92-.76-7.46,0-.85.03-1.83.1-2.95.06-1.12.14-2.28.22-3.49.08-1.21.16-2.38.22-3.52.06-1.14.1-2.18.1-3.11,0-1.31-.1-2.44-.29-3.4-.19-.95-.54-1.62-1.05-2-.89.47-1.99,1.38-3.3,2.73-1.31,1.35-2.76,3.07-4.35,5.14-1.59,2.07-3.28,4.47-5.08,7.17-1.8,2.71-3.61,5.63-5.43,8.76-1.14,1.95-2.33,3.98-3.55,6.09-1.23,2.12-2.44,4.18-3.65,6.19-1.21,2.01-2.4,3.93-3.59,5.74-1.18,1.82-2.31,3.42-3.36,4.79-1.06,1.37-2.03,2.46-2.92,3.27-.89.8-1.63,1.21-2.22,1.21-.76,0-1.39-.06-1.87-.19-.49-.13-.91-.25-1.27-.38-.36-.13-.68-.25-.95-.38-.28-.13-.56-.19-.86-.19-.34-1.19-.59-2.6-.76-4.25-.17-1.65-.3-3.31-.38-4.98-.09-1.67-.14-3.22-.16-4.63-.02-1.42-.03-2.49-.03-3.21,0-5.67.41-11.64,1.24-17.9.83-6.26,1.81-12.83,2.95-19.71,1.14-6.88,2.33-14.07,3.55-21.58,1.23-7.51,2.24-15.37,3.05-23.58.25-1.18.63-2.16,1.14-2.92.51-.76,1.08-1.35,1.71-1.78.63-.42,1.27-.71,1.9-.86.63-.15,1.21-.22,1.71-.22,1.27,0,2.28.66,3.05,1.97.76,1.31,1.14,3.07,1.14,5.27,0,.59-.07,1.5-.22,2.73-.15,1.23-.36,2.61-.63,4.16-.28,1.55-.57,3.2-.89,4.95-.32,1.76-.66,3.5-1.02,5.24-.36,1.74-.7,3.4-1.02,4.98-.32,1.59-.6,2.95-.86,4.09-1.02,4.57-1.94,9.21-2.76,13.93-.83,4.72-1.55,9.14-2.16,13.27-.61,4.13-1.09,7.81-1.43,11.04-.34,3.24-.51,5.66-.51,7.27v1.78c0,.76,0,1.55.03,2.35.02.8.05,1.56.1,2.25.04.7.11,1.17.19,1.43,1.56-1.18,3.08-2.69,4.54-4.51,1.46-1.82,2.96-3.9,4.51-6.25,1.54-2.35,3.21-4.91,4.98-7.68,1.78-2.77,3.79-5.7,6.03-8.79,1.18-1.69,2.59-3.51,4.22-5.46,1.63-1.95,3.37-3.75,5.24-5.43,1.86-1.67,3.82-3.06,5.87-4.16,2.05-1.1,4.09-1.65,6.13-1.65.93,0,1.68.78,2.25,2.35.57,1.57.86,3.6.86,6.09,0,.68-.09,1.7-.29,3.08-.19,1.38-.39,2.9-.6,4.57-.21,1.67-.41,3.4-.6,5.17-.19,1.78-.29,3.43-.29,4.95,0,1.23.07,2.7.22,4.41.15,1.71.53,3.35,1.14,4.92.61,1.57,1.52,2.9,2.73,4,1.21,1.1,2.89,1.65,5.05,1.65,3.55,0,7.57-.85,12.06-2.54,4.49-1.69,9.22-4.42,14.22-8.19.51-.38.98-.77,1.43-1.17.44-.4.85-.77,1.21-1.11.36-.34.69-.62.98-.86.3-.23.53-.35.7-.35.04,0,.14.06.29.19.15.13.3.26.44.41.15.15.29.3.41.44.13.15.19.24.19.29Z"/>
    <path class="st0" d="M1582.75,1515.03c0,.68-.47,1.8-1.4,3.36-1.69,2.71-3.8,5.63-6.32,8.76-2.52,3.13-5.31,6.27-8.38,9.43-3.07,3.15-6.33,6.19-9.78,9.11-3.45,2.92-6.95,5.49-10.51,7.71-3.55,2.22-7.07,4.01-10.54,5.36-3.47,1.35-6.77,2.03-9.9,2.03h-.44c-7.24,0-12.65-2.07-16.25-6.22-3.6-4.15-5.4-9.92-5.4-17.33,0-2.96.23-6.09.7-9.39.47-3.3,1.28-6.65,2.44-10.06,1.16-3.41,2.75-6.81,4.76-10.22,2.01-3.41,4.56-6.7,7.65-9.87,2.33-2.33,4.78-4.11,7.36-5.36,2.58-1.25,5.01-1.87,7.3-1.87.34,0,.78.09,1.33.25.55.17,1.11.39,1.68.67.57.28,1.12.61,1.65,1.02.53.4.98.84,1.36,1.3,1.18,1.52,2.05,2.98,2.6,4.38.55,1.4.83,3.03.83,4.89,0,2.45-.34,4.69-1.02,6.7-.68,2.01-1.65,3.97-2.92,5.87-1.27,1.9-2.84,3.82-4.7,5.74-1.86,1.93-4,4.01-6.41,6.25-.8.76-1.76,1.61-2.86,2.54-1.1.93-2.28,1.9-3.55,2.92-1.27,1.02-2.58,2.07-3.94,3.17-1.35,1.1-2.69,2.18-4,3.24.34,7.58,4.55,11.36,12.63,11.36,4.49,0,9.27-1.18,14.35-3.56,2.5-1.18,4.82-2.55,6.98-4.09,2.16-1.54,4.27-3.12,6.35-4.73,1.02-.8,2.14-1.76,3.36-2.86,1.23-1.1,2.49-2.26,3.78-3.49,1.29-1.23,2.58-2.45,3.87-3.68,1.29-1.23,2.51-2.39,3.65-3.49.72-.72,1.49-1.48,2.32-2.28.83-.8,1.7-1.67,2.63-2.6l3.43-3.43c2.07-1.82,3.58-2.73,4.51-2.73.51,0,.76.4.76,1.21ZM1533.87,1505.51c0-1.27-.34-2.38-1.02-3.33-.68-.95-1.5-1.43-2.48-1.43-.72,0-1.64.3-2.76.89-1.12.59-2.32,1.65-3.59,3.17-2.58,3.13-4.78,6.91-6.6,11.33-1.82,4.42-3.09,9.34-3.81,14.76,2.67-2.16,4.92-4.08,6.76-5.78,1.84-1.69,3.5-3.28,4.98-4.76,1.02-1.02,2.02-2.09,3.02-3.24.99-1.14,1.9-2.35,2.73-3.62.83-1.27,1.49-2.58,2-3.94.51-1.35.76-2.71.76-4.06Z"/>
    <path class="st0" d="M1633.65,1509.7c0,1.23-.34,2.25-1.02,3.08-.68.83-1.5,1.24-2.48,1.24-1.52,0-2.7-.25-3.52-.76-.83-.51-1.56-1.06-2.19-1.65-.63-.59-1.28-1.14-1.94-1.65-.66-.51-1.58-.76-2.76-.76-1.06,0-2.2.34-3.43,1.02-1.23.68-2.48,1.56-3.75,2.63-1.27,1.08-2.53,2.3-3.78,3.65-1.25,1.35-2.44,2.73-3.59,4.13-.8.97-1.68,2.13-2.63,3.46-.95,1.33-1.89,2.73-2.82,4.19-.93,1.46-1.8,2.92-2.6,4.38-.8,1.46-1.46,2.82-1.97,4.09-.38.97-.8,2.02-1.27,3.14-.47,1.12-.92,2.29-1.36,3.49-.44,1.21-.85,2.44-1.21,3.71-.36,1.27-.65,2.52-.86,3.75-.25,1.78-.5,3.43-.73,4.95-.23,1.52-.51,2.86-.83,4-.32,1.14-.73,2.03-1.24,2.67-.51.63-1.16.95-1.97.95-1.48,0-2.7-.23-3.65-.7-.95-.47-1.7-1.09-2.25-1.87-.55-.78-.94-1.68-1.17-2.7-.23-1.02-.39-2.07-.48-3.17-.13-1.78-.26-3.47-.41-5.08-.15-1.61-.3-3.24-.44-4.89-.15-1.65-.26-3.41-.35-5.27-.09-1.86-.13-3.98-.13-6.35,0-2.24.08-4.72.25-7.43.17-2.71.37-5.31.6-7.81.23-2.5.49-4.71.76-6.63.27-1.93.52-3.21.73-3.84.38-1.06.87-2.08,1.46-3.08.59-.99,1.24-1.88,1.94-2.67.7-.78,1.43-1.41,2.19-1.87.76-.47,1.46-.7,2.09-.7.55,0,1.11.07,1.68.22.57.15,1.08.41,1.52.79.44.38.8.89,1.08,1.52.27.63.41,1.42.41,2.35,0,.34-.2,1.17-.6,2.51-.4,1.33-.86,2.87-1.36,4.6-.51,1.74-1.01,3.55-1.49,5.46-.49,1.9-.81,3.58-.98,5.01,0,.3-.02.87-.06,1.71-.04.85-.09,1.83-.13,2.95-.04,1.12-.09,2.32-.13,3.59-.04,1.27-.06,2.48-.06,3.62,0,.8.01,1.52.03,2.16.02.63.05,1.16.09,1.59.38-.72.84-1.7,1.36-2.95.53-1.25,1.14-2.62,1.84-4.13.7-1.5,1.44-3.03,2.22-4.57.78-1.54,1.62-2.99,2.51-4.35.93-1.44,1.98-3,3.14-4.7,1.16-1.69,2.42-3.39,3.78-5.08,1.35-1.69,2.8-3.34,4.35-4.95,1.54-1.61,3.15-3.02,4.82-4.25,1.67-1.23,3.42-2.21,5.24-2.95,1.82-.74,3.68-1.11,5.59-1.11,2.03,0,3.8.33,5.3.98,1.5.66,2.75,1.52,3.75,2.6.99,1.08,1.72,2.3,2.19,3.65.47,1.35.7,2.71.7,4.06Z"/>
  </g>
  <g>
    <path class="st0" d="M1083.02,719.5c-1.31.35-2.59.7-3.89,1.09l2.12-2.19c.58.38,1.17.74,1.77,1.1Z"/>
    <path class="st0" d="M808.83,773.32c-25.67-6.25-49.06-18.34-68.7-34.78-7.69-6.43-14.8-13.54-21.24-21.23-2.52-3-3.35-6.9-2.53-10.51.41-1.82,1.26-3.58,2.53-5.09,31.16-37.18,77.95-60.83,130.26-60.83,23.47,0,45.82,4.76,66.15,13.36,9.34,3.95,18.26,8.71,26.66,14.21,1.65,1.07,3.29,2.18,4.89,3.31-14.62,16.55-25.47,26.22-25.72,26.43l-2.59,2.28c-3.26-2.06-6.6-3.97-10.02-5.73-16.86-8.67-35.01-13.43-53.99-14.19-1.78-.07-3.58-.1-5.38-.1-20.93,0-40.9,4.81-59.35,14.29-6.61,3.39-12.93,7.37-18.88,11.87-1.92,1.45-1.92,4.32,0,5.77,3.37,2.54,6.85,4.92,10.44,7.12,2.75,1.7,5.57,3.28,8.44,4.75,18.45,9.48,38.42,14.29,59.35,14.29,11.28,0,22.28-1.4,32.91-4.17,1.33-.34,2.66-.71,3.98-1.11,7.49-2.21,14.8-5.12,21.88-8.71.2-.09.4-.2.6-.3,6.21-3.18,12.16-6.89,17.78-11.06,1.62-1.18,3.21-2.42,4.78-3.69,0,0,11.84-10.41,27.75-28.49,5.44-6.18,11.34-13.25,17.42-21.1.46-.59.91-1.18,1.38-1.78,7.68-10.04,15.59-21.31,23.11-33.6,1.93-3.17,3.84-6.39,5.73-9.7,0,0,0-.02,0-.03,3.04-4.44,5.81-9.08,8.26-13.86,3.06-5.94,5.62-12.04,7.7-18.27,0,0,0,0,0-.02,1.98-5.94,3.53-12.03,4.62-18.22,1.31-7.47,1.96-15.1,1.96-22.85,0-1.82-.04-3.62-.1-5.43,0,0,0,0,0-.02-.76-18.96-5.51-37.06-14.18-53.91-3.39-6.61-7.37-12.94-11.87-18.88-1.45-1.92-4.32-1.92-5.77,0-1.01,1.34-2.01,2.71-2.96,4.09-3.31,4.73-6.28,9.67-8.91,14.79-4.38,8.52-7.75,17.34-10.12,26.44-2.77,10.63-4.17,21.63-4.17,32.91,0,20.94,4.81,40.91,14.29,59.36,1.47,2.86,3.05,5.68,4.75,8.43.37.63.75,1.24,1.15,1.86-1.09,1.86-2.2,3.69-3.31,5.5-1.15,1.91-2.34,3.77-3.52,5.62-5.49,8.61-11.16,16.66-16.74,24.06-2.99-3.79-5.8-7.73-8.46-11.77-.02-.02-.03-.05-.05-.08-3.04-4.87-5.91-9.73-8.51-14.51,0,0-.02-.03-.03-.04,0-.03-.03-.06-.04-.08,0-.02,0-.04-.02-.05h0c-6.2-11.93-11.03-24.68-14.28-38.06-3.13-12.9-4.8-26.39-4.8-40.26,0-36.46,11.48-70.25,31.04-97.92,8.5-12.04,18.52-22.91,29.78-32.36,4.51-3.77,11.09-3.77,15.6,0,37.19,31.17,60.83,77.96,60.83,130.27,0,21.31-3.92,41.69-11.08,60.48-2.02,5.31-4.3,10.48-6.82,15.51,0,0-.08.17-.26.51-.03.06-.06.11-.09.17-1,1.88-4.08,7.54-9.12,15.86,0,0-.02.02-.02.03-3.92,6.47-9.06,14.55-15.33,23.7-6.96,10.15-15.34,21.62-25.06,33.66-4.75,5.89-9.83,11.93-15.23,18.01-3.92,5.26-8.12,10.28-12.61,15.05-6.85,7.28-14.32,13.95-22.35,19.93-28.32,21.13-63.44,33.62-101.49,33.62-13.89,0-27.38-1.66-40.31-4.8,0,0-.02,0-.02,0Z"/>
    <path class="st0" d="M1190.29,918.53c17.63,17.63,21.18,44,10.64,65.15-2.65,5.33-6.2,10.33-10.64,14.77l-100.53,100.53c-4.44,4.44-9.44,7.99-14.77,10.64-1.39.69-2.81,1.33-4.24,1.9-15.03,5.99-32.11,5.28-46.65-2.15-5.14-2.63-9.95-6.08-14.25-10.39l-37.11-37.11-13.7-13.71c-4.3-4.29-7.76-9.11-10.38-14.23-8.15-15.93-8.23-34.91-.27-50.91,2.24-4.5,5.13-8.77,8.64-12.66.65-.71,1.31-1.42,2.01-2.11l28.54-28.54,27.26-27.26,7.62-7.62,14.93-14.93,12.32-12.32,40.96,40.96c11.35,11.34,16.86,26.31,16.54,41.17-.3,14.06-5.8,28.02-16.54,38.74l-34.54,34.54c-.11.11-.23.23-.34.35l-17.9,17.89-27.25-27.25,17.9-17.9s.05-.05.08-.08l34.8-34.81c1.08-1.08,2-2.27,2.75-3.53,4.08-6.89,3.17-15.95-2.75-21.88l-13.71-13.7-7.62,7.62-27.26,27.25-28.54,28.55c-.7.69-1.33,1.45-1.89,2.23-5.04,7.01-4.42,16.87,1.89,23.18l50.81,50.81c4.59,4.58,9.93,5.27,12.71,5.27,2,0,5.34-.36,8.77-2.27,1.32-.74,2.66-1.72,3.93-3l100.53-100.53c1.08-1.08,2-2.27,2.75-3.53,4.06-6.85,3.18-15.82-2.63-21.74l-50.94-50.95-37.9-37.9-11.81-11.82c-4.58-4.57-9.93-5.26-12.7-5.26-2.09,0-5.62.38-9.18,2.51-1.18.7-2.38,1.61-3.53,2.75l-9.85,9.86-10.64,10.65-14.36,14.35-9.88,9.88-10.65,10.65-16.61,16.61-29.67,29.67-33.75,33.75-1.92,1.91c-7.52-7.52-11.29-17.39-11.29-27.25s3.77-19.73,11.29-27.25l34.87-34.87,19.82-19.82,10.64-10.64,24.24-24.24,10.65-10.64,9.85-9.86c12.31-12.31,28.9-17.76,44.99-16.32,7.79.69,15.46,2.99,22.48,6.9,4.46,2.49,8.66,5.62,12.45,9.42l100.53,100.53Z"/>
    <path class="st0" d="M1281.1,717.31c-9.45,11.27-20.32,21.29-32.35,29.78-27.67,19.55-61.46,31.04-97.93,31.04-13.87,0-27.35-1.66-40.25-4.8h0c-20.9-5.08-40.28-14.02-57.36-26.04l8.86-9.13,14.74-15.18,2.33-2.39c1.3-.38,2.58-.74,3.89-1.09h0c2.75,1.7,5.57,3.29,8.44,4.76,18.45,9.48,38.41,14.29,59.35,14.29,11.28,0,22.28-1.4,32.91-4.16,9.11-2.38,17.93-5.76,26.45-10.13,5.12-2.62,10.06-5.6,14.79-8.9,1.38-.96,2.75-1.95,4.09-2.97,1.92-1.45,1.92-4.32,0-5.77-5.95-4.5-12.27-8.48-18.88-11.87-16.85-8.66-34.95-13.42-53.91-14.18t-.02,0h-.06c-1.78-.07-3.58-.1-5.38-.1-20.94,0-40.9,4.81-59.35,14.29-1.72.87-3.41,1.8-5.08,2.75-6.14,3.51-11.99,7.53-17.49,12l-27.29,28.1-.41.42-3.04,3.14s0,0-.02,0l-63.79,65.68-51.78,53.31-34.55,34.55-.32.33-41.11,41.11-9.77,9.77c-1.9,1.94-3.27,4.21-4.11,6.62-2.2,6.31-.78,13.62,4.25,18.64l100.53,100.53c4.58,4.58,9.93,5.27,12.7,5.27,2.62,0,7.51-.6,11.89-4.5l27.27,27.27c-9.34,8.99-21.01,14.13-33.03,15.44-7.97.86-16.1.04-23.78-2.49-1.4-.46-2.78-.97-4.14-1.54-1.31-.55-2.62-1.15-3.9-1.81-5.14-2.62-9.95-6.08-14.25-10.38l-100.54-100.53c-4.12-4.12-7.47-8.73-10.06-13.63-.1-.21-.22-.4-.31-.61-10.85-21.23-7.4-47.9,10.37-65.67l39.15-39.15,10.65-10.65,120.25-126.06,6.96-7.3h0c3.87-4.54,7.98-8.87,12.31-12.98,2.95-2.8,5.98-5.48,9.13-8.06.34-.28.68-.55,1.02-.83l5.46-5.72,6.96-7.31h0c3.86-4.54,7.98-8.86,12.31-12.98,2.94-2.79,5.98-5.47,9.12-8.06,29.33-24.11,66.88-38.58,107.81-38.58,52.32,0,99.11,23.64,130.28,60.83,3.77,4.51,3.77,11.1,0,15.6Z"/>
    <path class="st0" d="M753.86,1319.47c0,45.65-35.15,80.2-81.4,80.2h-.15c4.2-5.16,7.86-10.76,10.9-16.66,7-13.63,10.55-28.37,10.55-43.83s-3.55-30.22-10.55-43.85c-3.04-5.89-6.7-11.49-10.9-16.66-4.2,5.18-7.86,10.77-10.9,16.66-7,13.64-10.55,28.39-10.55,43.85s3.55,30.21,10.55,43.83c3.04,5.9,6.7,11.5,10.9,16.66-46.49-.07-81.55-34.6-81.55-80.2s35.15-80.2,81.71-80.2,81.4,34.54,81.4,80.2Z"/>
    <circle class="st0" cx="1684.61" cy="1523.03" r="16.53"/>
    <circle class="st0" cx="315.39" cy="1523.03" r="16.53"/>
  </g>
</svg>