<?xml version="1.0" encoding="UTF-8"?>
<svg id="Layer_1" xmlns="http://www.w3.org/2000/svg" version="1.1" viewBox="0 0 2000 2000">
  <!-- Generator: Adobe Illustrator 30.0.0, SVG Export Plug-In . SVG Version: 2.1.1 Build 123)  -->
  <defs>
    <style>
      .st0 {
        fill: #f6edde;
      }
    </style>
  </defs>
  <path class="st0" d="M18.03,1419.7c0-46.17,33.11-81.11,77.46-81.11,25.82,0,47.09,12.15,60.15,31.59v-27.95h26.13v114.22c0,9.42,6.08,15.49,15.49,15.49h3.04v25.21h-8.2c-20.96,0-33.42-10.03-35.85-28.56-13.06,19.75-34.63,32.2-60.76,32.2-44.35,0-77.46-34.93-77.46-81.11ZM155.65,1419.7c0-31.9-23.69-55.9-55.29-55.9s-55.59,24-55.59,55.9,23.7,55.9,55.59,55.9,55.29-24,55.29-55.9Z"/>
  <path class="st0" d="M228.56,1278.44h26.13v91.74c13.06-19.44,34.33-31.59,60.15-31.59,44.35,0,77.77,34.93,77.77,81.11s-33.42,81.11-77.77,81.11c-25.82,0-47.09-12.15-60.15-31.59v27.95h-26.13v-218.72ZM365.56,1419.7c0-31.9-23.7-55.9-55.59-55.9s-55.29,24-55.29,55.9,23.69,55.9,55.29,55.9,55.59-24,55.59-55.9Z"/>
  <path class="st0" d="M434.22,1469.82l-12.76,27.34h-27.34l73.52-154.93h30.07c13.06,41.62,65.92,43.44,65.92,96.91,0,36.76-24.3,61.67-63.19,61.67-27.64,0-51.95-12.15-66.22-30.99ZM482.22,1368.05l-37.67,80.2c9.72,16.4,29.77,27.34,51.34,27.34,24,0,40.71-14.28,40.71-36.76,0-31.9-37.37-38.28-54.38-70.78Z"/>
  <path class="st0" d="M785.4,1342.23h26.12v23.39c12.15-17.32,31.59-27.04,55.9-27.04,37.67,0,62.88,24.91,62.88,62.88v54.99c0,9.42,6.08,15.49,15.49,15.49h2.73v25.21h-7.9c-23.39,0-36.45-12.46-36.45-35.24v-52.25c0-27.64-17.62-45.87-45.26-45.87s-47.39,18.53-47.39,46.48v86.88h-26.12v-154.93Z"/>
  <path class="st0" d="M1060.18,1459.69c-22.39-40.33-8.28-88.08,32.58-110.76,41.13-22.83,88.84-9.4,111.23,30.93,1.47,2.65,3.57,7.05,4.77,9.85l-118.87,65.99c17.24,21.67,45.47,27.52,70.94,13.38,18.84-10.46,30.28-28.61,30.47-46.42l25.47-14.14c3.82,31.9-12.73,63.99-44.57,81.66-41.66,23.13-89.64,9.84-112.03-30.49ZM1078.81,1435.12l94.73-52.58c-17.06-20.73-45-26.04-69.15-12.64-24.15,13.4-33.88,39.63-25.58,65.22Z"/>
  <path class="st0" d="M1824.83,1459.79c-22.39-40.33-8.28-88.08,32.58-110.76,41.13-22.83,88.84-9.4,111.23,30.93,1.47,2.65,3.57,7.05,4.77,9.85l-118.87,65.99c17.24,21.67,45.47,27.52,70.94,13.38,18.84-10.46,30.28-28.61,30.47-46.42l25.47-14.14c3.82,31.9-12.73,63.99-44.57,81.66-41.66,23.13-89.64,9.84-112.03-30.49ZM1843.47,1435.22l94.73-52.58c-17.06-20.73-45-26.04-69.15-12.64-24.15,13.4-33.88,39.63-25.58,65.22Z"/>
  <path class="st0" d="M1254.7,1469.85l-12.75,27.31h-27.31l73.44-154.77h30.04c13.05,41.58,65.85,43.4,65.85,96.81,0,36.72-24.28,61.61-63.12,61.61-27.62,0-51.89-12.14-66.16-30.95ZM1302.65,1368.19l-37.63,80.12c9.71,16.39,29.74,27.31,51.29,27.31,23.97,0,40.67-14.26,40.67-36.72,0-31.86-37.33-38.24-54.32-70.71Z"/>
  <path class="st0" d="M1417.07,1451.64v-85.58h-28.22v-23.67h18.21c7.28,0,11.23-3.95,11.23-11.53v-31.26h24.89v42.79h41.58v23.67h-41.58v81.33c0,15.78,10.01,25.8,26.4,25.8h15.17v23.98h-18.82c-31.26,0-48.86-16.69-48.86-45.52Z"/>
  <path class="st0" d="M1504.47,1419.78c0-46.13,33.08-81.03,77.39-81.03,25.8,0,47.04,12.14,60.09,31.56v-27.92h26.1v114.11c0,9.41,6.07,15.48,15.48,15.48h3.04v25.19h-8.19c-20.94,0-33.38-10.01-35.81-28.53-13.05,19.73-34.59,32.17-60.7,32.17-44.31,0-77.39-34.9-77.39-81.03ZM1641.95,1419.78c0-31.86-23.67-55.84-55.23-55.84s-55.54,23.98-55.54,55.84,23.67,55.84,55.54,55.84,55.23-23.97,55.23-55.84Z"/>
  <path class="st0" d="M1729.06,1451.64v-85.58h-28.22v-23.67h18.21c7.28,0,11.23-3.95,11.23-11.53v-31.26h24.89v42.79h41.58v23.67h-41.58v81.33c0,15.78,10.01,25.8,26.4,25.8h15.17v23.98h-18.82c-31.26,0-48.86-16.69-48.86-45.52Z"/>
  <path class="st0" d="M1083.96,812.92c-1.32.35-2.62.71-3.93,1.1l2.15-2.21c.59.38,1.19.75,1.79,1.11Z"/>
  <path class="st0" d="M806.66,867.36c-25.96-6.32-49.62-18.55-69.47-35.17-7.78-6.5-14.97-13.69-21.48-21.47-2.54-3.03-3.39-6.98-2.55-10.63.42-1.84,1.27-3.62,2.55-5.15,31.52-37.61,78.84-61.52,131.74-61.52,23.73,0,46.34,4.81,66.9,13.51,9.45,4,18.47,8.81,26.96,14.37,1.67,1.08,3.32,2.2,4.95,3.35-14.79,16.74-25.75,26.51-26.01,26.73l-2.62,2.31c-3.3-2.08-6.68-4.02-10.13-5.79-17.06-8.77-35.4-13.58-54.6-14.35-1.8-.07-3.62-.1-5.44-.1-21.17,0-41.37,4.86-60.03,14.45-6.69,3.43-13.08,7.45-19.1,12-1.94,1.46-1.94,4.37,0,5.83,3.41,2.57,6.93,4.98,10.56,7.2,2.78,1.72,5.63,3.31,8.54,4.81,18.66,9.59,38.86,14.45,60.03,14.45,11.4,0,22.53-1.41,33.28-4.22,1.35-.34,2.69-.72,4.03-1.12,7.58-2.23,14.97-5.18,22.13-8.81.2-.09.41-.2.61-.3,6.28-3.22,12.3-6.97,17.99-11.19,1.64-1.2,3.25-2.45,4.83-3.73,0,0,11.97-10.53,28.06-28.81,5.5-6.25,11.47-13.4,17.62-21.34.47-.6.92-1.2,1.4-1.8,7.77-10.15,15.76-21.56,23.37-33.98,1.96-3.21,3.88-6.47,5.79-9.81,0,0,0-.02,0-.03,3.08-4.49,5.88-9.18,8.36-14.02,3.1-6.01,5.69-12.17,7.79-18.48,0,0,0,0,0-.02,2-6.01,3.57-12.16,4.67-18.42,1.32-7.56,1.98-15.27,1.98-23.11,0-1.84-.04-3.67-.1-5.49,0,0,0,0,0-.02-.77-19.17-5.57-37.48-14.34-54.52-3.43-6.69-7.45-13.09-12-19.1-1.46-1.95-4.37-1.95-5.83,0-1.03,1.36-2.03,2.74-2.99,4.14-3.34,4.79-6.35,9.78-9.01,14.96-4.43,8.61-7.83,17.54-10.24,26.74-2.8,10.75-4.22,21.88-4.22,33.28,0,21.18,4.86,41.38,14.45,60.04,1.49,2.9,3.09,5.75,4.81,8.53.37.64.76,1.25,1.16,1.88-1.1,1.88-2.22,3.73-3.35,5.56-1.17,1.93-2.36,3.82-3.56,5.69-5.56,8.71-11.29,16.85-16.93,24.33-3.02-3.84-5.87-7.82-8.56-11.91-.02-.02-.03-.05-.05-.08-3.08-4.93-5.97-9.84-8.6-14.67,0,0-.02-.03-.03-.04,0-.03-.03-.06-.04-.08,0-.02,0-.04-.02-.05h0c-6.27-12.06-11.16-24.96-14.44-38.49-3.16-13.05-4.85-26.68-4.85-40.72,0-36.87,11.61-71.04,31.39-99.03,8.59-12.17,18.73-23.17,30.11-32.72,4.56-3.82,11.22-3.82,15.77,0,37.61,31.53,61.52,78.85,61.52,131.75,0,21.55-3.96,42.16-11.21,61.17-2.04,5.37-4.35,10.6-6.89,15.69,0,0-.09.17-.27.51-.03.06-.06.11-.09.17-1.01,1.9-4.12,7.63-9.22,16.04,0,0-.02.02-.02.03-3.97,6.54-9.16,14.72-15.51,23.97-7.04,10.27-15.52,21.86-25.35,34.04-4.81,5.95-9.94,12.06-15.4,18.21-3.96,5.32-8.21,10.4-12.75,15.22-6.92,7.36-14.48,14.11-22.6,20.16-28.64,21.37-64.16,34.01-102.64,34.01-14.04,0-27.69-1.68-40.77-4.85,0,0-.02,0-.02,0Z"/>
  <path class="st0" d="M1192.45,1014.22c17.83,17.83,21.42,44.5,10.76,65.88-2.68,5.39-6.27,10.45-10.76,14.94l-101.67,101.67c-4.49,4.49-9.54,8.08-14.94,10.76-1.41.7-2.84,1.35-4.29,1.92-15.2,6.06-32.48,5.34-47.18-2.17-5.19-2.66-10.07-6.15-14.42-10.5l-37.53-37.53-13.85-13.86c-4.35-4.34-7.84-9.21-10.49-14.4-8.24-16.11-8.33-35.31-.28-51.49,2.27-4.55,5.18-8.87,8.74-12.8.66-.72,1.33-1.43,2.03-2.14l28.86-28.86,27.57-27.57,7.71-7.71,15.1-15.1,12.46-12.46,41.42,41.42c11.48,11.47,17.06,26.61,16.72,41.64-.3,14.22-5.87,28.34-16.72,39.18l-34.93,34.93c-.11.11-.23.24-.34.35l-18.1,18.09-27.56-27.56,18.1-18.1s.05-.05.08-.08l35.19-35.2c1.09-1.09,2.02-2.3,2.78-3.57,4.13-6.97,3.21-16.13-2.78-22.13l-13.86-13.85-7.7,7.71-27.57,27.56-28.87,28.87c-.71.7-1.35,1.46-1.91,2.25-5.1,7.09-4.47,17.06,1.91,23.45l51.38,51.38c4.64,4.63,10.04,5.33,12.86,5.33,2.02,0,5.4-.36,8.87-2.3,1.34-.75,2.69-1.74,3.98-3.03l101.67-101.67c1.09-1.09,2.02-2.3,2.78-3.57,4.1-6.92,3.22-16-2.66-21.98l-51.52-51.53-38.33-38.33-11.95-11.96c-4.63-4.62-10.05-5.32-12.85-5.32-2.12,0-5.68.39-9.29,2.54-1.2.71-2.4,1.62-3.57,2.78l-9.96,9.97-10.76,10.77-14.52,14.51-9.99,9.99-10.77,10.77-16.8,16.8-30.01,30.01-34.13,34.13-1.94,1.93c-7.61-7.61-11.41-17.59-11.41-27.56s3.81-19.95,11.41-27.56l35.27-35.27,20.05-20.05,10.76-10.76,24.51-24.51,10.77-10.76,9.96-9.97c12.45-12.45,29.23-17.96,45.5-16.5,7.88.69,15.64,3.02,22.73,6.98,4.51,2.52,8.76,5.69,12.59,9.52l101.67,101.67Z"/>
  <path class="st0" d="M1284.29,810.71c-9.55,11.4-20.55,21.53-32.71,30.11-27.99,19.77-62.15,31.39-99.04,31.39-14.03,0-27.66-1.68-40.71-4.85h0c-21.14-5.14-40.74-14.18-58.01-26.33l8.96-9.23,14.91-15.36,2.36-2.42c1.31-.39,2.61-.75,3.93-1.1h0c2.78,1.72,5.63,3.32,8.54,4.81,18.66,9.59,38.85,14.45,60.03,14.45,11.4,0,22.53-1.41,33.28-4.21,9.21-2.4,18.14-5.82,26.75-10.25,5.18-2.65,10.17-5.66,14.96-9,1.4-.97,2.78-1.98,4.14-3,1.94-1.46,1.94-4.37,0-5.83-6.02-4.55-12.41-8.58-19.1-12-17.04-8.76-35.34-13.57-54.52-14.34t-.02,0h-.06c-1.8-.07-3.62-.1-5.44-.1-21.18,0-41.37,4.86-60.03,14.45-1.74.88-3.45,1.82-5.14,2.78-6.21,3.55-12.13,7.62-17.69,12.14l-27.6,28.42-.42.43-3.08,3.17s0,0-.02,0l-64.52,66.43-52.36,53.91-34.95,34.95-.32.33-41.57,41.57-9.89,9.89c-1.92,1.97-3.3,4.25-4.16,6.69-2.22,6.38-.79,13.77,4.3,18.85l101.67,101.67c4.63,4.63,10.04,5.33,12.85,5.33,2.65,0,7.6-.61,12.02-4.55l27.58,27.58c-9.45,9.09-21.25,14.29-33.41,15.61-8.06.87-16.29.04-24.05-2.52-1.41-.47-2.81-.98-4.19-1.56-1.33-.56-2.65-1.17-3.94-1.83-5.19-2.65-10.07-6.14-14.42-10.49l-101.68-101.67c-4.17-4.17-7.56-8.83-10.17-13.79-.1-.21-.22-.41-.31-.62-10.98-21.47-7.48-48.44,10.48-66.42l39.59-39.59,10.77-10.77,121.61-127.49,7.04-7.38h0c3.91-4.6,8.07-8.97,12.45-13.12,2.98-2.83,6.05-5.55,9.23-8.15.34-.28.68-.56,1.04-.84l5.52-5.78,7.04-7.39h0c3.9-4.59,8.07-8.96,12.45-13.12,2.97-2.82,6.05-5.54,9.22-8.15,29.67-24.39,67.64-39.02,109.04-39.02,52.91,0,100.23,23.91,131.76,61.52,3.82,4.56,3.82,11.22,0,15.77Z"/>
  <path class="st0" d="M751.07,1419.7c0,46.17-35.54,81.11-82.32,81.11h-.16c4.24-5.22,7.95-10.88,11.02-16.85,7.07-13.78,10.67-28.7,10.67-44.33s-3.59-30.56-10.67-44.35c-3.07-5.96-6.78-11.62-11.02-16.85-4.24,5.24-7.95,10.9-11.02,16.85-7.07,13.8-10.67,28.71-10.67,44.35s3.59,30.55,10.67,44.33c3.07,5.97,6.78,11.63,11.02,16.85-47.02-.07-82.48-34.99-82.48-81.11s35.54-81.11,82.63-81.11,82.32,34.94,82.32,81.11Z"/>
</svg>