<?xml version="1.0" encoding="UTF-8"?>
<svg id="Layer_1" data-name="Layer 1" xmlns="http://www.w3.org/2000/svg" viewBox="0 0 2000 2000">
  <defs>
    <style>
      .cls-1 {
        fill: #f6edde;
      }
    </style>
  </defs>
  <path class="cls-1" d="M1227.58,883.48c-3.58.95-7.1,1.93-10.66,2.99l5.82-6c1.6,1.03,3.22,2.03,4.84,3.01Z"/>
  <path class="cls-1" d="M475.95,1031.02c-70.37-17.14-134.49-50.27-188.31-95.34-21.08-17.63-40.57-37.12-58.22-58.2-6.9-8.21-9.19-18.92-6.92-28.8,1.13-4.99,3.45-9.81,6.92-13.95,85.43-101.93,213.69-166.74,357.09-166.74,64.32,0,125.61,13.05,181.34,36.63,25.61,10.84,50.06,23.89,73.08,38.94,4.53,2.93,9.01,5.97,13.41,9.09-40.08,45.38-69.81,71.87-70.5,72.46l-7.1,6.25c-8.93-5.64-18.1-10.89-27.46-15.7-46.23-23.76-95.96-36.81-148-38.89-4.89-.18-9.81-.28-14.75-.28-57.37,0-112.12,13.18-162.7,39.18-18.12,9.29-35.44,20.21-51.76,32.54-5.25,3.96-5.25,11.84,0,15.8,9.24,6.98,18.79,13.49,28.62,19.51,7.54,4.66,15.26,8.98,23.14,13.02,50.58,26,105.33,39.18,162.7,39.18,30.91,0,61.08-3.84,90.22-11.43,3.66-.93,7.28-1.96,10.91-3.04,20.54-6.05,40.57-14.03,59.97-23.89.54-.26,1.11-.54,1.65-.82,17.01-8.73,33.33-18.89,48.75-30.32,4.45-3.24,8.8-6.64,13.1-10.12,0,0,32.46-28.55,76.06-78.09,14.9-16.94,31.09-36.32,47.75-57.84,1.26-1.62,2.5-3.24,3.78-4.89,21.06-27.52,42.73-58.43,63.35-92.1,5.3-8.7,10.53-17.53,15.7-26.59,0-.03,0-.05.03-.08,8.34-12.17,15.93-24.89,22.65-37.99,8.39-16.29,15.42-33,21.11-50.09,0-.03.03-.03.03-.05,5.43-16.29,9.68-32.97,12.66-49.94,3.58-20.49,5.38-41.39,5.38-62.65,0-4.99-.1-9.94-.28-14.88,0,0-.03-.03-.03-.05-2.09-51.97-15.11-101.6-38.87-147.77-9.29-18.12-20.21-35.47-32.54-51.76-3.96-5.28-11.84-5.28-15.8,0-2.78,3.68-5.51,7.44-8.11,11.22-9.06,12.97-17.22,26.51-24.43,40.54-11.99,23.35-21.24,47.54-27.75,72.48-7.59,29.14-11.43,59.3-11.43,90.22,0,57.4,13.18,112.15,39.18,162.73,4.04,7.85,8.37,15.57,13.02,23.11,1,1.72,2.06,3.4,3.14,5.1-2.99,5.1-6.02,10.12-9.09,15.08-3.17,5.23-6.41,10.35-9.65,15.42-15.06,23.6-30.6,45.66-45.89,65.95-8.19-10.4-15.91-21.18-23.19-32.28-.05-.05-.08-.13-.13-.21-8.34-13.36-16.19-26.67-23.32-39.77-.03-.03-.05-.08-.08-.1-.03-.08-.08-.15-.1-.21-.03-.05-.03-.1-.05-.13h-.03c-16.99-32.69-30.24-67.64-39.15-104.32-8.57-35.37-13.15-72.33-13.15-110.37,0-99.95,31.48-192.56,85.1-268.42,23.29-33,50.76-62.81,81.62-88.7,12.36-10.35,30.4-10.35,42.75,0,101.96,85.46,166.74,213.72,166.74,357.12,0,58.4-10.73,114.28-30.37,165.79-5.53,14.54-11.79,28.73-18.69,42.52,0,0-.23.46-.72,1.39-.08.15-.15.31-.26.46-2.73,5.15-11.17,20.67-24.99,43.47-.03.03-.05.05-.05.08-10.76,17.73-24.84,39.9-42.03,64.97-19.07,27.82-42.06,59.25-68.7,92.28-13.02,16.14-26.95,32.69-41.75,49.37-10.73,14.41-22.26,28.19-34.57,41.26-18.76,19.95-39.25,38.25-61.26,54.65-77.63,57.91-173.9,92.17-278.2,92.17-38.07,0-75.06-4.56-110.5-13.15-.03-.03-.05-.03-.05-.03Z"/>
  <path class="cls-1" d="M1521.64,1429.08c48.34,48.34,58.07,120.62,29.16,178.58-7.26,14.62-16.99,28.31-29.16,40.49l-275.57,275.57c-12.17,12.17-25.87,21.9-40.49,29.16-3.81,1.9-7.7,3.66-11.63,5.2-41.21,16.42-88.03,14.47-127.88-5.89-14.08-7.21-27.28-16.68-39.07-28.47l-101.72-101.72-37.55-37.58c-11.79-11.76-21.26-24.97-28.44-39.02-22.34-43.65-22.57-95.7-.75-139.56,6.15-12.33,14.05-24.04,23.68-34.7,1.78-1.96,3.6-3.89,5.51-5.79l78.22-78.22,74.72-74.72,20.9-20.9,40.93-40.93,33.77-33.77,112.28,112.28c31.12,31.09,46.23,72.12,45.33,112.87-.82,38.53-15.91,76.81-45.33,106.2l-94.67,94.67c-.31.31-.62.64-.93.95l-49.06,49.03-74.7-74.7,49.06-49.06c.08-.08.13-.13.21-.21l95.39-95.42c2.96-2.96,5.48-6.23,7.54-9.68,11.2-18.89,8.7-43.73-7.54-59.97l-37.58-37.55-20.87,20.9-74.72,74.7-78.25,78.25c-1.93,1.9-3.66,3.96-5.17,6.1-13.82,19.23-12.12,46.25,5.17,63.55l139.28,139.28c12.59,12.56,27.21,14.44,34.85,14.44,5.48,0,14.65-.98,24.04-6.23,3.63-2.03,7.28-4.71,10.79-8.21l275.57-275.57c2.96-2.96,5.48-6.23,7.54-9.68,11.12-18.76,8.73-43.37-7.21-59.59l-139.64-139.66-103.89-103.89-32.38-32.41c-12.56-12.54-27.23-14.41-34.83-14.41-5.74,0-15.39,1.06-25.17,6.87-3.24,1.93-6.51,4.4-9.68,7.54l-27,27.03-29.16,29.19-39.36,39.33-27.08,27.08-29.19,29.19-45.53,45.53-81.34,81.34-92.51,92.51-5.25,5.23c-20.62-20.62-30.94-47.67-30.94-74.7s10.32-54.08,30.94-74.7l95.6-95.6,54.34-54.34,29.16-29.16,66.43-66.43,29.19-29.16,27-27.03c33.74-33.74,79.23-48.67,123.32-44.74,21.36,1.88,42.39,8.19,61.62,18.92,12.23,6.82,23.73,15.42,34.13,25.82l275.57,275.57Z"/>
  <path class="cls-1" d="M1770.57,877.48c-25.89,30.89-55.7,58.35-88.67,81.62-75.86,53.59-168.47,85.1-268.44,85.1-38.02,0-74.98-4.56-110.35-13.15h-.03c-57.3-13.93-110.42-38.43-157.25-71.38l24.3-25.02,40.41-41.62,6.38-6.56c3.55-1.06,7.08-2.03,10.66-2.99h.03c7.54,4.66,15.26,9.01,23.14,13.05,50.58,26,105.3,39.18,162.7,39.18,30.91,0,61.08-3.84,90.22-11.4,24.97-6.51,49.16-15.78,72.51-27.77,14.03-7.18,27.57-15.34,40.54-24.4,3.78-2.63,7.54-5.35,11.22-8.13,5.25-3.96,5.25-11.84,0-15.8-16.32-12.33-33.64-23.24-51.76-32.54-46.18-23.73-95.8-36.78-147.77-38.87t-.05-.03h-.15c-4.89-.18-9.81-.28-14.75-.28-57.4,0-112.12,13.18-162.7,39.18-4.71,2.39-9.34,4.94-13.93,7.54-16.83,9.63-32.87,20.64-47.95,32.9l-74.8,77.04-1.13,1.16-8.34,8.6s-.03.03-.05.03l-174.88,180.05-141.93,146.13-94.72,94.72-.88.9-112.69,112.69-26.8,26.8c-5.2,5.33-8.96,11.53-11.27,18.15-6.02,17.3-2.14,37.32,11.66,51.09l275.57,275.57c12.56,12.56,27.21,14.44,34.83,14.44,7.18,0,20.59-1.65,32.59-12.33l74.75,74.75c-25.61,24.63-57.61,38.74-90.55,42.32-21.85,2.37-44.14.1-65.2-6.82-3.84-1.26-7.62-2.65-11.35-4.22-3.6-1.52-7.18-3.17-10.68-4.97-14.08-7.18-27.28-16.65-39.07-28.44l-275.6-275.57c-11.3-11.3-20.49-23.94-27.57-37.37-.28-.57-.59-1.11-.85-1.67-29.76-58.2-20.28-131.3,28.42-180.02l107.31-107.31,29.19-29.19,329.62-345.56,19.07-20h.03c10.6-12.46,21.88-24.32,33.74-35.57,8.08-7.67,16.4-15.03,25.02-22.08.93-.77,1.85-1.52,2.81-2.27l14.95-15.68,19.07-20.03h.03c10.58-12.43,21.88-24.3,33.74-35.57,8.06-7.64,16.4-15.01,24.99-22.08,80.41-66.1,183.35-105.77,295.55-105.77,143.42,0,271.68,64.81,357.14,166.74,10.35,12.36,10.35,30.42-.03,42.75Z"/>
</svg>